HIERARCHY
ROOT Hips
{
  OFFSET 0 0 0
  CHANNELS 6 Xposition Yposition Zposition Zrotation Yrotation Xrotation
  JOINT LeftThigh
  {
    OFFSET 8.409438 0 -5.917753
    CHANNELS 3 Zrotation Yrotation Xrotation
    JOINT LeftLeg
    {
      OFFSET 0 0 -42.358652
      CHANNELS 3 Zrotation Yrotation Xrotation
      JOINT LeftFoot
      {
        OFFSET 0 0 -39.357303
        CHANNELS 3 Zrotation Yrotation Xrotation
      }
    }
  }
  JOINT RightThigh
  {
    OFFSET -8.409438 0 -5.917753
    CHANNELS 3 Zrotation Yrotation Xrotation
    JOINT RightLeg
    {
      OFFSET 0 0 -42.358652
      CHANNELS 3 Zrotation Yrotation Xrotation
      JOINT RightFoot
      {
        OFFSET 0 0 -39.357303
        CHANNELS 3 Zrotation Yrotation Xrotation
      }
    }
  }
  JOINT SpineLow
  {
    OFFSET 0 0 4.719101
    CHANNELS 3 Zrotation Yrotation Xrotation
    JOINT SpineMid
    {
      OFFSET 0 0 12.899191
      CHANNELS 3 Zrotation Yrotation Xrotation
      JOINT Chest
      {
        OFFSET 0 0 12.899191
        CHANNELS 3 Zrotation Yrotation Xrotation
        JOINT LeftShoulder
        {
          OFFSET 7.550562 1.41573 9.438202
          CHANNELS 3 Zrotation Yrotation Xrotation
          JOINT LeftArm
          {
            OFFSET 9.155056 0 4.247191
            CHANNELS 3 Zrotation Yrotation Xrotation
            JOINT LeftForearm
            {
              OFFSET 0 0 25.771955
              CHANNELS 3 Zrotation Yrotation Xrotation
              JOINT LeftHand
              {
                OFFSET 0 0 25.197169
                CHANNELS 3 Zrotation Yrotation Xrotation
              }
            }
          }
        }
        JOINT RightShoulder
        {
          OFFSET -7.550562 1.41573 9.438202
          CHANNELS 3 Zrotation Yrotation Xrotation
          JOINT RightArm
          {
            OFFSET -9.155056 0 4.247191
            CHANNELS 3 Zrotation Yrotation Xrotation
            JOINT RightForearm
            {
              OFFSET 0 0 -25.771955
              CHANNELS 3 Zrotation Yrotation Xrotation
              JOINT RightHand
              {
                OFFSET 0 0 -25.197169
                CHANNELS 3 Zrotation Yrotation Xrotation
              }
            }
          }
        }
        JOINT Neck
        {
          OFFSET 0 0 15.101124
          CHANNELS 3 Zrotation Yrotation Xrotation
          JOINT Head
          {
            OFFSET 0 0 11.325843
            CHANNELS 3 Zrotation Yrotation Xrotation
            End Site
            {
              OFFSET 0 0 14.157303
            }
          }
        }
      }
    }
  }
}
MOTION
Frames: 5
Frame Time: 0.0
0.0  101.685394  0.0  9.619139  53.59824  -86.810118  -12.569558  -11.632079  -10.164455  -18.381418  15.65194  24.534793  3.998789  3.002237  2.962742  -40.169015  21.642311  -10.254557  -15.516457  13.900581  25.598637  5.66241  3.160681  -4.393229  -0.503027  1.267156  1.927522  -1.27404  3.501057  5.246568  -1.27404  3.501057  5.246568  36.615562  20.105904  20.468921  172.376406  22.045037  -170.612994  -3.486213  -6.212016  131.4546  79.745601  2.337759  -9.786785  34.251735  1.650261  14.541536  131.548869  43.663829  87.56174  -78.402399  53.537565  -88.041118  89.920503  28.223902  6.316365  -12.352073  -2.638829  -3.107412  -9.276117  -1.917304  -2.38468  
0.0  101.685394  0.0  8.799408  52.13052  -87.743147  -11.745987  -11.893054  -9.416404  -18.114278  15.406119  24.423452  4.118264  3.066229  2.966927  -40.263542  21.544784  -10.355433  -14.663151  13.444524  25.542868  5.81415  3.214076  -4.293337  -0.551408  1.26666  1.895233  -1.408072  3.502873  5.155663  -1.408072  3.502873  5.155663  36.360232  20.176423  20.859582  172.587286  22.648071  -169.34044  -3.400529  -8.408144  131.351478  80.645241  4.330272  -9.967973  33.772031  1.744742  14.785135  130.627828  43.955122  85.470414  -79.162088  52.765952  -88.195489  90.476337  27.850171  6.583259  -11.907976  -2.517796  -2.792503  -8.941268  -1.834807  -2.1441  
0.0  101.685394  0.0  7.900489  50.292102  -88.886843  -10.398415  -12.30885  -8.379839  -17.61694  15.152291  24.385229  4.113514  3.068365  2.931497  -39.878756  21.489359  -10.275451  -13.909716  13.007087  25.50786  6.021565  3.249465  -4.188526  -0.527514  1.285056  1.897545  -1.341211  3.551309  5.16299  -1.341211  3.551309  5.162989  35.837598  20.1651  21.028354  172.739086  23.267871  -168.098984  -3.426887  -10.976391  131.172043  81.645675  6.484584  -10.250786  32.931795  1.696418  14.787987  129.56092  44.410277  83.155031  -79.869002  51.905436  -88.352496  91.026393  27.482228  7.076709  -11.578348  -2.446418  -2.465128  -8.692476  -1.788906  -1.895752  
0.0  101.685394  0.0  6.979342  48.037687  -90.058905  -8.727587  -12.672469  -7.249355  -17.121663  14.731492  24.221959  3.946334  3.131102  2.899577  -39.171228  21.36459  -10.194562  -13.342056  12.675868  25.415334  6.379258  3.319829  -4.056723  -0.472284  1.285144  1.889281  -1.190655  3.547111  5.143365  -1.190655  3.547111  5.143365  35.26552  20.293003  21.307917  173.065975  23.923816  -166.726336  -3.369843  -13.696535  130.916116  82.885954  8.677973  -10.639326  31.965614  1.689279  14.903244  128.396767  45.098787  80.661867  -80.642321  51.139492  -88.678328  91.158432  27.089646  7.613013  -11.107388  -2.40886  -2.172199  -8.337999  -1.767885  -1.673375  
0.0  101.685394  0.0  6.111893  45.471915  -91.10968  -6.746242  -13.03551  -6.177779  -16.626012  14.241824  24.064955  3.812163  3.213909  2.880994  -38.205031  21.1534  -10.131034  -12.688776  12.336455  25.315738  6.805189  3.39373  -3.926715  -0.415109  1.273859  1.895746  -1.034866  3.511947  5.164252  -1.034866  3.511948  5.164252  34.711235  20.596798  21.457174  173.387365  24.615366  -165.322413  -3.415738  -16.078736  130.785524  84.472339  10.892719  -10.894637  30.873814  1.840583  14.92919  127.176055  45.999019  77.969226  -81.739066  50.378565  -89.557927  90.844101  26.477228  7.984758  -10.418009  -2.312898  -1.893818  -7.819701  -1.702997  -1.460126  
